<svg id="Layer_1" data-name="Layer 1" xmlns="http://www.w3.org/2000/svg" viewBox="0 0 75.51 67.68"><defs><style>.cls-1{font-size:10.02px;fill:#000100;font-family:Nexa Bold;}</style></defs><title>logo</title><path d="M29.35,9.43h0a4.85,4.85,0,0,1,.84.08,4.78,4.78,0,0,1,.84.23l10.75-7,4.68,6.88a8.42,8.42,0,0,1,1.24-.18h0l0.2,0-5.42-8a0.65,0.65,0,0,0-.89-0.18L29.09,9.46l0.25,0h0Z" transform="translate(-0.78 -1.19)"/><path d="M20.47,15.43V32.71a0.65,0.65,0,0,0,1.3,0h0V15.78L24.5,14A4.56,4.56,0,0,1,25,12.11l-4.26,2.78A0.65,0.65,0,0,0,20.47,15.43Z" transform="translate(-0.78 -1.19)"/><path d="M56.48,22.06L52.3,15.91a4.78,4.78,0,0,1-.31.7,4.85,4.85,0,0,1-.38.6l3.67,5.41V32.71h0a0.65,0.65,0,0,0,1.3,0V22.42A0.65,0.65,0,0,0,56.48,22.06Z" transform="translate(-0.78 -1.19)"/><path d="M32.44,22.64a6.06,6.06,0,0,0,0-.62,3.09,3.09,0,0,0-3.06-2.74,3,3,0,0,0-.91.14,3.09,3.09,0,0,0-2.18,3.05q0,3.9,0,7.79,0,1.22,0,2.43,0,2.72,0,5.43a2.79,2.79,0,0,0,0,.3,0.7,0.7,0,0,0,.69.64h0a0.7,0.7,0,0,0,.71-0.63,2.79,2.79,0,0,0,0-.32q0-2.71,0-5.42,0-5.16,0-10.32a1.65,1.65,0,0,1,1.65-1.68h0.17A1.67,1.67,0,0,1,31,22.48q0,5.11,0,10.23,0,2.7,0,5.41c0,0.09,0,.18,0,0.27a0.7,0.7,0,0,0,.62.69h0.08a0.68,0.68,0,0,0,.7-0.56,1.86,1.86,0,0,0,0-.37q0-2.72,0-5.44Q32.44,27.67,32.44,22.64Z" transform="translate(-0.78 -1.19)"/><path d="M50.76,21.9a3.11,3.11,0,0,0-3-2.62H47.61a3.1,3.1,0,0,0-3,3.19q0,5.12,0,10.23,0,2.73,0,5.45a2,2,0,0,0,0,.32,0.69,0.69,0,0,0,.7.6h0a0.71,0.71,0,0,0,.68-0.8q0-2.78,0-5.57,0-5.1,0-10.19a2.27,2.27,0,0,1,.08-0.63,1.65,1.65,0,0,1,1.57-1.17l0.22,0a1.65,1.65,0,0,1,1.44,1.66q0,5.16,0,10.33,0,2.72,0,5.43a2.46,2.46,0,0,0,0,.32,0.7,0.7,0,0,0,.69.62h0a0.7,0.7,0,0,0,.71-0.58,2,2,0,0,0,0-.35q0-2.72,0-5.44,0-1.2,0-2.4,0-3.83,0-7.67A6.18,6.18,0,0,0,50.76,21.9Z" transform="translate(-0.78 -1.19)"/><path d="M41.61,32.71q0-2.49,0-5A3.09,3.09,0,0,0,41.52,27a3,3,0,0,0-3-2.32l-0.44,0a3.07,3.07,0,0,0-2.62,3.09q0,2.47,0,4.95,0,3.91,0,7.82a2.18,2.18,0,0,0,0,.25,0.71,0.71,0,0,0,.67.61h0a0.72,0.72,0,0,0,.68-0.54,1.81,1.81,0,0,0,0-.37q0-3.89,0-7.77,0-1.22,0-2.45c0-.84,0-1.68,0-2.52A1.66,1.66,0,0,1,38.52,26a1.76,1.76,0,0,1,.59.1,1.66,1.66,0,0,1,1.08,1.66q0,2.45,0,4.91,0,3.84,0,7.68a1.32,1.32,0,0,0,0,.37,1.11,1.11,0,0,0,.2.41,0.64,0.64,0,0,0,.49.22,0.68,0.68,0,0,0,.28-0.06,0.7,0.7,0,0,0,.43-0.69q0-3.29,0-6.58Q41.61,33.38,41.61,32.71Z" transform="translate(-0.78 -1.19)"/><path d="M29.89,10.49a3.77,3.77,0,0,0-.54-0.06h0a3.82,3.82,0,0,0-.66.07,3.81,3.81,0,0,0-3,2.76,3.81,3.81,0,0,0-.17,1,3.89,3.89,0,0,0,3.88,3.88h0A3.87,3.87,0,0,0,29.89,10.49Zm-0.54,6.28h0a2.45,2.45,0,0,1,0-4.91h0A2.45,2.45,0,0,1,29.36,16.76Z" transform="translate(-0.78 -1.19)"/><polygon points="28.57 15.07 28.57 15.07 28.57 15.57 28.57 15.07 28.57 15.07"/><path d="M38.53,15.82h0a3.88,3.88,0,0,0,0,7.76h0A3.88,3.88,0,0,0,38.53,15.82Zm0.11,6.33H38.53a2.45,2.45,0,0,1-.1-4.9h0.1A2.45,2.45,0,0,1,38.64,22.14Z" transform="translate(-0.78 -1.19)"/><path d="M48.67,10.57a3.89,3.89,0,0,0-.87-0.12H47.7a4,4,0,0,0-.64.07,3.87,3.87,0,0,0,.6,7.69h0A3.9,3.9,0,0,0,51,16.33a3.82,3.82,0,0,0,.33-0.67,3.76,3.76,0,0,0,.21-0.86,3.7,3.7,0,0,0,0-.44A3.86,3.86,0,0,0,48.67,10.57Zm1.49,3.75a2.49,2.49,0,0,1-2.45,2.44h0a2.45,2.45,0,0,1,0-4.91h0l0.28,0A2.45,2.45,0,0,1,50.16,14.32Z" transform="translate(-0.78 -1.19)"/><polygon points="46.93 15.07 46.94 15.57 46.94 15.07 46.93 15.07"/><text class="cls-1" transform="translate(0 52.57)">S<tspan x="6.73" y="0">t</tspan><tspan x="10.73" y="0">o</tspan><tspan x="16.27" y="0">warzyszenie</tspan><tspan x="20.61" y="12.03">V</tspan><tspan x="28.14" y="12.03">E</tspan><tspan x="34.61" y="12.03">STA</tspan></text></svg>